<svg width="128" height="33" fill="none" xmlns="http://www.w3.org/2000/svg"><path d="M6.457.256.144 3.898l6.313 3.641-6.313 3.585 6.313 3.641-6.313 3.584 6.313 3.642 8.209-4.666 4.477 4.666v-7.198l6.314-3.641-19-10.896zm11.538 18.72L7.605 8.164l10.39 5.917v4.893zM127.857 16.5h-2.239V12.86h-2.009V16.5h-2.296v1.935h2.296v9.445h2.009v-9.474h2.239V16.5zm-11.48-.284a3.82 3.82 0 0 0-1.925.402c-.595.3-1.099.75-1.462 1.305V16.5h-2.009v11.38h2.009v-6.515a3.314 3.314 0 0 1 .861-2.504 2.987 2.987 0 0 1 2.009-.796 2.357 2.357 0 0 1 1.722.626 2.354 2.354 0 0 1 .631 1.82v7.283h2.009v-7.396a4.925 4.925 0 0 0-.516-2.276 3.833 3.833 0 0 0-1.378-1.48 4.287 4.287 0 0 0-1.951-.455v.029zm-16.502 5.149a3.756 3.756 0 0 1 1.262-2.39 3.96 3.96 0 0 1 2.583-.91 3.671 3.671 0 0 1 2.411.853 3.49 3.49 0 0 1 1.205 2.447h-7.462zm9.47 1.707c.048-.301.067-.606.058-.91a6.838 6.838 0 0 0-.689-3.016 5.62 5.62 0 0 0-1.952-2.22 5.198 5.198 0 0 0-2.984-.796 6.273 6.273 0 0 0-3.1.797 5.519 5.519 0 0 0-2.124 2.162 6.095 6.095 0 0 0-.746 3.072 6.095 6.095 0 0 0 .746 3.073 5.519 5.519 0 0 0 2.124 2.162 6.273 6.273 0 0 0 3.1.796 6.01 6.01 0 0 0 3.329-.967 4.837 4.837 0 0 0 1.894-2.503h-2.066a2.453 2.453 0 0 1-1.206 1.195 4.367 4.367 0 0 1-4.534-.399 3.812 3.812 0 0 1-1.32-2.446h9.47zm-19.372 3.1a4.277 4.277 0 0 1-2.066-.512 4.114 4.114 0 0 1-1.493-1.479 4.322 4.322 0 0 1 0-4.096 4.114 4.114 0 0 1 1.493-1.48 4.422 4.422 0 0 1 4.133 0 4.114 4.114 0 0 1 1.492 1.48 4.322 4.322 0 0 1 0 4.096 4.114 4.114 0 0 1-1.492 1.48 4.277 4.277 0 0 1-2.067.512zm4.075-9.672v1.992a5.109 5.109 0 0 0-1.836-1.65 5.353 5.353 0 0 0-2.526-.626 5.95 5.95 0 0 0-2.927.796 5.518 5.518 0 0 0-2.124 2.162 5.866 5.866 0 0 0-.804 2.959 6.08 6.08 0 0 0 .804 3.015 5.919 5.919 0 0 0 2.124 2.163 5.633 5.633 0 0 0 2.927.796 5.261 5.261 0 0 0 2.47-.596 5.208 5.208 0 0 0 1.892-1.68v1.593a3.448 3.448 0 0 1-.975 2.56 3.983 3.983 0 0 1-2.813.911 3.88 3.88 0 0 1-1.894-.398 3.114 3.114 0 0 1-1.263-.968c-.26-.345-.4-.764-.402-1.194h-2.009c.004.826.287 1.627.804 2.275a4.697 4.697 0 0 0 2.066 1.537 6.36 6.36 0 0 0 2.698.569 6.828 6.828 0 0 0 2.87-.626 5.05 5.05 0 0 0 2.124-1.82c.547-.87.826-1.878.803-2.903V16.5h-2.009zM80.043 27.88h2.038V16.5h-2.01l-.028 11.38zm0-13.428h2.038v-2.504h-2.01l-.028 2.504zM75.566 27.88h2.009V11.465h-2.01V27.88zm-4.477 0h2.009V11.465h-2.01V27.88zm-11.136-6.487a3.756 3.756 0 0 1 1.263-2.39c.723-.6 1.64-.923 2.583-.91a3.67 3.67 0 0 1 2.41.854 3.466 3.466 0 0 1 1.205 2.447h-7.46zm9.471 1.707a4.85 4.85 0 0 0 .058-.91 6.828 6.828 0 0 0-.69-3.016 5.62 5.62 0 0 0-1.95-2.219 5.2 5.2 0 0 0-2.986-.796 6.27 6.27 0 0 0-3.099.796 5.518 5.518 0 0 0-2.124 2.162 6.096 6.096 0 0 0-.746 3.073 6.096 6.096 0 0 0 .746 3.072 5.518 5.518 0 0 0 2.124 2.162 6.27 6.27 0 0 0 3.1.797 6.008 6.008 0 0 0 3.329-.967 4.834 4.834 0 0 0 1.894-2.504h-2.067a2.452 2.452 0 0 1-1.205 1.195 4.367 4.367 0 0 1-4.534-.398 3.59 3.59 0 0 1-1.32-2.447h9.47zM57.6 16.5h-2.239V12.86h-1.98V16.5h-2.296v1.935h2.296v9.445h2.01v-9.474h2.238L57.6 16.5zm-13.977 9.758a4.276 4.276 0 0 1-2.066-.512 4.115 4.115 0 0 1-1.492-1.48 4.322 4.322 0 0 1 0-4.096 3.72 3.72 0 0 1 1.492-1.48 4.422 4.422 0 0 1 4.133 0 4.116 4.116 0 0 1 1.492 1.48 4.323 4.323 0 0 1 0 4.097 3.72 3.72 0 0 1-1.492 1.479 3.97 3.97 0 0 1-2.067.512zm4.104-14.31v6.487a4.986 4.986 0 0 0-1.887-1.676 5.036 5.036 0 0 0-2.475-.543 5.581 5.581 0 0 0-2.87.796 5.93 5.93 0 0 0-2.124 2.162 6.064 6.064 0 0 0 0 6.031 5.93 5.93 0 0 0 2.124 2.162c.866.52 1.858.796 2.87.797a5.163 5.163 0 0 0 2.526-.569 5.637 5.637 0 0 0 1.836-1.65v1.934h2.01V11.95h-2.01zm-18.08 14.338a4.278 4.278 0 0 1-2.067-.512 4.114 4.114 0 0 1-1.492-1.479 4.322 4.322 0 0 1 0-4.097 3.72 3.72 0 0 1 1.492-1.479 4.42 4.42 0 0 1 4.133 0 4.113 4.113 0 0 1 1.492 1.48 4.322 4.322 0 0 1 0 4.096 3.72 3.72 0 0 1-1.492 1.48 3.97 3.97 0 0 1-2.066.511zm4.075-9.786v1.935a4.984 4.984 0 0 0-1.888-1.676 5.036 5.036 0 0 0-2.474-.543 5.836 5.836 0 0 0-2.931.799 5.77 5.77 0 0 0-2.12 2.16 6.064 6.064 0 0 0 0 6.03 5.77 5.77 0 0 0 2.12 2.16c.888.52 1.9.796 2.93.799a5.163 5.163 0 0 0 2.526-.569 5.636 5.636 0 0 0 1.837-1.65v1.934h2.009V16.5h-2.009z" fill="#000"/></svg>