<svg width="132" height="28" fill="none" xmlns="http://www.w3.org/2000/svg"><path d="m1.667 26.667 2.44-3.276-2.291-2.502h.7l3.292 3.68v-3.68h.55v3.68l3.293-3.68h.7l-2.302 2.502 2.45 3.276h-.677l-2.12-2.878-1.343 1.461v1.417h-.551V25.25l-1.344-1.472-2.12 2.889h-.677zm10.17 0v-5.778h.556v5.042l3.898-5.042h.556v5.778h-.556v-5.042l-3.898 5.042h-.556zm6.1 0 .105-.51c.18.052.325.078.435.078.125 0 .23-.01.314-.028a.774.774 0 0 0 .28-.15.88.88 0 0 0 .249-.325c.066-.14.13-.334.192-.582.066-.247.118-.546.155-.896.04-.354.073-.788.099-1.3.025-.513.04-1.1.044-1.76v-.305h3.915v5.778h-.556v-5.28h-2.83v.155c0 .675-.017 1.275-.05 1.799-.03.52-.07.963-.121 1.328a5.223 5.223 0 0 1-.198.935c-.085.255-.171.458-.26.609a1.035 1.035 0 0 1-.33.348 1.117 1.117 0 0 1-.38.155 2.363 2.363 0 0 1-1.063-.05zm7.494-2.889c0-.402.076-.788.226-1.157.15-.368.354-.69.611-.962.257-.277.571-.497.942-.659.37-.166.765-.249 1.184-.249a2.83 2.83 0 0 1 1.508.415 2.83 2.83 0 0 1 1.057 1.107c.254.46.38.963.38 1.505 0 .539-.126 1.039-.38 1.5a2.95 2.95 0 0 1-1.068 1.112 2.869 2.869 0 0 1-1.52.415c-.414 0-.805-.081-1.172-.244a2.85 2.85 0 0 1-.936-.652 3.095 3.095 0 0 1-.832-2.131zm.595 0c0 .697.228 1.29.683 1.776.459.484 1.02.725 1.685.725.418 0 .807-.11 1.167-.332a2.547 2.547 0 0 0 1.178-2.17c0-.693-.23-1.283-.694-1.77-.462-.49-1.02-.736-1.673-.736a2.18 2.18 0 0 0-1.179.338c-.36.221-.644.525-.853.913a2.58 2.58 0 0 0-.314 1.256zm7.01 2.889v-5.778h.555v5.042l3.899-5.042h.556v5.778h-.556v-5.042l-3.899 5.042h-.556zm.985-8.024.462-.1c.147.55.5.825 1.058.825.561 0 .915-.275 1.062-.825l.463.1c-.07.376-.244.688-.523.935a1.46 1.46 0 0 1-1.002.37 1.46 1.46 0 0 1-1.003-.37 1.617 1.617 0 0 1-.517-.935zm9.498 8.024v-5.778h.556v3.703l3.562-3.703h.733l-2.517 2.557 2.594 3.22h-.7l-2.273-2.822-1.4 1.417v1.406h-.555zm5.875-2.889c0-.402.075-.788.226-1.157.15-.368.354-.69.61-.962.258-.277.572-.497.942-.659.37-.166.766-.249 1.184-.249a2.83 2.83 0 0 1 1.509.415 2.83 2.83 0 0 1 1.057 1.107c.253.46.38.963.38 1.505 0 .539-.127 1.039-.38 1.5a2.95 2.95 0 0 1-1.068 1.112 2.869 2.869 0 0 1-1.52.415c-.415 0-.806-.081-1.173-.244a2.85 2.85 0 0 1-.936-.652 3.095 3.095 0 0 1-.831-2.131zm.594 0c0 .697.228 1.29.683 1.776.459.484 1.02.725 1.685.725.419 0 .808-.11 1.167-.332a2.547 2.547 0 0 0 1.178-2.17c0-.693-.23-1.283-.693-1.77-.463-.49-1.02-.736-1.674-.736a2.18 2.18 0 0 0-1.178.338c-.36.221-.645.525-.854.913a2.58 2.58 0 0 0-.314 1.256zm7.01 2.889v-5.778h.5l2.346 3.32 2.346-3.32h.495v5.778h-.556v-4.815l-2.312 3.193-2.285-3.193v4.815h-.534zm7.785 0v-5.778h4.785v5.778h-.556v-5.28H65.34v5.28h-.556zm5.88 0 .105-.51c.18.052.325.078.435.078.125 0 .23-.01.314-.028a.777.777 0 0 0 .281-.15.878.878 0 0 0 .248-.325c.066-.14.13-.334.192-.582.066-.247.118-.546.154-.896.04-.354.074-.788.1-1.3.025-.513.04-1.1.044-1.76v-.305h3.915v5.778h-.556v-5.28h-2.83v.155c0 .675-.017 1.275-.05 1.799-.03.52-.07.963-.121 1.328a5.24 5.24 0 0 1-.199.935 3.37 3.37 0 0 1-.258.609 1.039 1.039 0 0 1-.33.348c-.133.082-.26.133-.38.155a2.361 2.361 0 0 1-1.063-.05zm7.494-2.9c0-.413.07-.804.21-1.173.14-.373.328-.694.567-.963.238-.27.527-.483.864-.642a2.54 2.54 0 0 1 1.085-.238c.525 0 .989.135 1.393.404.407.266.718.627.93 1.085a3.602 3.602 0 0 1 .309 1.765H78.74c.048.694.288 1.247.721 1.66.437.41.95.614 1.536.614.756 0 1.414-.3 1.972-.902l.385.338c-.323.35-.672.62-1.046.808-.37.188-.815.282-1.333.282a2.72 2.72 0 0 1-1.079-.221c-.34-.148-.64-.35-.897-.61a2.936 2.936 0 0 1-.617-.962 3.393 3.393 0 0 1-.226-1.245zm.584-.26h4.185a2.98 2.98 0 0 0-.171-.841 2.534 2.534 0 0 0-.391-.714 1.702 1.702 0 0 0-.639-.504 1.945 1.945 0 0 0-.864-.188c-.565 0-1.048.214-1.448.642-.397.428-.62.963-.672 1.605zm6.392 3.16v-5.778h.557v3.703l3.562-3.703h.732l-2.516 2.557 2.593 3.22h-.699l-2.274-2.822-1.398 1.417v1.406h-.557zm5.875-2.889c0-.546.129-1.05.386-1.51a2.94 2.94 0 0 1 1.057-1.108 2.82 2.82 0 0 1 1.487-.409c.895 0 1.659.36 2.29 1.08l-.385.392a3.906 3.906 0 0 0-.887-.703 2.057 2.057 0 0 0-1.029-.249c-.419 0-.806.113-1.162.338a2.384 2.384 0 0 0-.848.913c-.21.384-.314.802-.314 1.256 0 .697.23 1.29.688 1.776a2.228 2.228 0 0 0 1.68.725c.686 0 1.323-.328 1.91-.985l.402.366c-.319.365-.666.647-1.04.846-.37.2-.806.299-1.305.299-.544 0-1.041-.135-1.492-.404-.448-.273-.8-.64-1.058-1.101a3.13 3.13 0 0 1-.38-1.522zM12.27 14.424c-.584.43-1.294.753-2.13.968a9.156 9.156 0 0 1-2.54.352c-1.167 0-2.16-.186-2.977-.557a5.135 5.135 0 0 1-1.955-1.555c-.506-.685-.876-1.506-1.11-2.464-.213-.958-.32-2.014-.32-3.168 0-2.484.554-4.39 1.663-5.72C4.011.93 5.625.256 7.746.256c1.07 0 1.927.088 2.569.264.661.176 1.255.4 1.78.675l-.905 3.109a7.475 7.475 0 0 0-1.342-.499 5.656 5.656 0 0 0-1.489-.176c-1.05 0-1.848.352-2.393 1.056-.545.685-.817 1.79-.817 3.315 0 .626.068 1.203.204 1.73.136.528.34.988.613 1.38.272.39.623.703 1.05.938.448.215.964.322 1.547.322.643 0 1.187-.078 1.635-.234a6.26 6.26 0 0 0 1.197-.616l.875 2.904zm11.08-5.779.145-2.082h-.087l-1.255 2.14-5.195 6.63h-2.393V.667h3.794v6.98l-.175 1.996h.116l1.197-2.083L24.75.667h2.394v14.666H23.35V8.645zM40.975 4.04H36.86v11.293h-3.91V4.04h-4.116V.667h12.142V4.04zm10.476 4.605.146-2.082h-.087l-1.255 2.14-5.195 6.63h-2.394V.667h3.795v6.98l-.176 1.996h.117L47.6 7.56 52.853.667h2.394v14.666h-3.795V8.645zm30.29-4.605H77.13v11.293h-3.794V.667h12.2v14.666H81.74V4.04zm7.04-2.523c.778-.352 1.702-.626 2.772-.821a16.995 16.995 0 0 1 3.357-.323c1.011 0 1.858.127 2.539.382.68.234 1.216.576 1.605 1.026.409.45.69.988.846 1.614.176.625.263 1.33.263 2.112 0 .86-.029 1.73-.087 2.61-.059.86-.098 1.711-.117 2.552 0 .841.029 1.662.087 2.464.059.782.205 1.526.438 2.23h-3.094l-.612-2.024h-.146c-.39.606-.934 1.134-1.635 1.583-.681.43-1.567.646-2.656.646-.68 0-1.294-.098-1.838-.293a4.266 4.266 0 0 1-1.401-.88 4.201 4.201 0 0 1-.905-1.35 4.64 4.64 0 0 1-.321-1.76c0-.9.194-1.652.584-2.258.408-.626.982-1.125 1.722-1.496.758-.392 1.653-.656 2.685-.792 1.05-.157 2.218-.206 3.502-.147.136-1.095.058-1.877-.234-2.347-.291-.489-.943-.733-1.955-.733-.759 0-1.567.078-2.422.235-.838.156-1.528.361-2.073.616l-.904-2.846zm4.815 10.912c.76 0 1.362-.166 1.81-.498.447-.352.778-.724.992-1.115V8.909a10.542 10.542 0 0 0-1.751-.03 6.267 6.267 0 0 0-1.46.265c-.428.137-.768.332-1.02.587-.254.254-.38.576-.38.967 0 .548.155.978.467 1.291.33.293.778.44 1.342.44zM103.348.667h2.773l.437 1.76h.117c.506-.744 1.099-1.291 1.781-1.643.7-.352 1.546-.528 2.539-.528 1.829 0 3.2.587 4.115 1.76.915 1.154 1.372 3.021 1.372 5.603 0 1.251-.146 2.385-.438 3.402-.292.997-.73 1.848-1.313 2.552a5.531 5.531 0 0 1-2.102 1.614c-.817.371-1.761.557-2.831.557-.603 0-1.099-.049-1.488-.147a4.632 4.632 0 0 1-1.168-.41V21.2h-3.794V.667zm6.509 2.816c-.74 0-1.324.185-1.752.557-.408.371-.729.929-.963 1.672v6.101c.273.215.565.391.876.528.331.118.759.176 1.284.176 1.09 0 1.907-.381 2.452-1.144.544-.782.817-2.063.817-3.842 0-1.291-.214-2.288-.642-2.992-.428-.704-1.119-1.056-2.072-1.056zm14.068 5.778h-1.021v6.072h-3.794V.667h3.794v6.248l.905-.411 3.414-5.837h4.057l-3.531 5.573-1.489 1.115 1.635 1.144 3.94 6.834h-4.349l-3.561-6.072z" fill="#fff"/><path d="M64.342 10.667A2.66 2.66 0 0 0 66.995 8a2.66 2.66 0 0 0-2.653-2.667A2.66 2.66 0 0 0 61.688 8a2.66 2.66 0 0 0 2.654 2.667z" fill="#F1C650"/></svg>