<svg width="111" height="49" fill="none" xmlns="http://www.w3.org/2000/svg"><path fill-rule="evenodd" clip-rule="evenodd" d="m21.349 3.749.173 1.225c-5.513 11.135 1.517 10.228 1.517 10.228l.888-.159.135.27c13.061-1.47 20.202 5.28 20.202 5.28C45.214 4.617 21.35 3.748 21.35 3.748z" fill="#F8B829"/><path d="M13.147 41.368c-.555 3.675 2.467 5.807 2.948 4.63 1.332-1.726 1.8-1.224 2.467-3.821.243-.323.524-.615.838-.87a47.522 47.522 0 0 0 1.949-2.132 33.066 33.066 0 0 0 4.687-6.823 12.46 12.46 0 0 0 1.455-8.183 14.838 14.838 0 0 0-2.134-3.969 4.445 4.445 0 0 1-.37-2.009 5.681 5.681 0 0 0-.9-2.903 2.985 2.985 0 0 1-.79-2.315c.161-.931.161-1.85.297-2.781a11.226 11.226 0 0 0-.938-5.071s-.863-1.52-1.628-1.14a8.367 8.367 0 0 0-9.077.11s-17.661 11.21-1.739 32.745c-.481 2.793 1.233 5.672 2.565 7.583" fill="#005D86"/><path d="m21.275 16.783-2.393-10.83s-1.406-4.164-5.106 1.09l-.616-.808c-3.404 4.79-8.017 10.535-6.993 16.758a7.928 7.928 0 0 0 1.17 3.231 7.989 7.989 0 0 0 2.431 2.441 7.6 7.6 0 0 0 9.595-.796c1.924-1.593 3.49-4.827 1.912-11.086z" fill="#fff"/><path fill-rule="evenodd" clip-rule="evenodd" d="M24.062 15.35s11.42-1.764 20.202 5.28c0 0-8.263-10.768-21.435-8.772.012 0-.937 2.646 1.233 3.492z" fill="#F19320"/><path d="M44.264 20.63a12.467 12.467 0 0 0-2.01-7.89c-.123-.159-1.073 1.899-1.085 2.083-.05.858.16 1.712.604 2.45.629 1.151 2.158 2.095 2.467 3.332" fill="#E95253"/><path d="M1.233 36.187a8.689 8.689 0 0 0 5.057.33c2.356.319 3.589 1.054 6.4 1.372 3.442 0 6.858-.367 10.275-.686 1.11-.098 3.576-.233 4.514.637.542.502.382 1.862.394 2.573a21.298 21.298 0 0 0-6.364-1.348c-2.466 0-5.02.11-7.523.086a28.666 28.666 0 0 1-5.094-.441c-1.566-.294-3.108-.698-4.674-1.017-1.135-.245-2.516-.44-2.985-1.506z" fill="#9B5F48"/><path d="M23.224 38.391c0 .392-.346 1.225-.666 1.225-.321 0-.666-.82-.666-1.225v-1.384c0-.392.246-.784.567-.784a.867.867 0 0 1 .74.784l.025 1.384z" fill="#969595"/><path d="M21.892 38.587c0 .307-.247.944-.506.944-.26 0-.506-.637-.506-.944v-1.09c0-.306.185-.612.444-.612a.642.642 0 0 1 .543.612l.025 1.09z" fill="#838383"/><path d="M9.657 38.391c0 .392.345 1.225.666 1.225.32 0 .666-.82.666-1.225v-1.384c0-.392-.247-.784-.567-.784a.878.878 0 0 0-.74.784l-.025 1.384z" fill="#969595"/><path d="M10.989 38.587c0 .307.247.944.506.944s.505-.637.505-.944v-1.09c0-.306-.185-.612-.444-.612a.642.642 0 0 0-.542.612l-.025 1.09z" fill="#838383"/><path d="M23.79 11.613c.297-.698.84-2.867-.665-6.603-.271-.576-.95-1.91-2.393-1.225-.21.319 2.603 2.07 2.023 8.244 0 0-.728 2.585 1.307 3.308a4.69 4.69 0 0 1-.456-2.034 4.64 4.64 0 0 1 .185-1.69zm-.135.245h.013-.013z" fill="#003B55"/><path d="M21.349 9.334c.543 2.891-.913 4.533-3.799 4.57-2.22 0-5.451-.466-5.76-3.16-.258-2.34 1.234-5.513 3.627-6.224 3.317-1.004 5.414 1.972 5.944 4.814h-.012z" fill="#F8B829"/><path d="M19.585 9.126a2.08 2.08 0 0 1-.389 2.011 2.11 2.11 0 0 1-1.93.721c-1.405 0-3.366-.33-3.49-2.033A3.655 3.655 0 0 1 14.3 7.61a3.693 3.693 0 0 1 1.734-1.485c1.986-.551 3.22 1.225 3.515 2.952l.037.05z" fill="#005D86"/><path fill-rule="evenodd" clip-rule="evenodd" d="M18.5 8.759c0 .456-.183.894-.508 1.217a1.739 1.739 0 0 1-2.45 0 1.716 1.716 0 0 1 0-2.434 1.739 1.739 0 0 1 2.45 0c.325.322.508.76.508 1.217z" fill="#151410"/><path fill-rule="evenodd" clip-rule="evenodd" d="M17.008 7.668c0 .307-.272 0-.272 0s.272-.318.272 0zM16.033 7.656c-.172 0-.21.184-.234.38a.333.333 0 0 0-.212.353.327.327 0 0 0 .052.137s.838-.784.9-.735a.642.642 0 0 0-.506-.135z" fill="#fff"/><path d="M43.598 35.917a.685.685 0 0 1 .518.22l1.456 1.544c-2.208 2.793-6.439 3.418-9.67 2.23a8.62 8.62 0 0 1-3.934-3.209 8.533 8.533 0 0 1-1.43-4.852 8.82 8.82 0 0 1 1.122-5.018 8.903 8.903 0 0 1 3.737-3.557 9.133 9.133 0 0 1 5.2-.739 9.103 9.103 0 0 1 4.74 2.246l-1.233 1.666c-.666.955-1.69-.098-2.38-.429a5.684 5.684 0 0 0-3.281-.441 5.174 5.174 0 0 0-2.92 1.737 5.113 5.113 0 0 0-1.2 3.163 6.428 6.428 0 0 0 .31 3.269 6.468 6.468 0 0 0 1.886 2.697 5.442 5.442 0 0 0 6.487-.343.955.955 0 0 1 .592-.184zM50.567 22.185v18.057h-3.392V22.185h3.392zM56.807 27.758v12.495h-3.355V27.758h3.355zM57.214 24.133c0 2.609-4.169 2.621-4.169 0 0-2.622 4.17-2.622 4.17 0zM68.808 30.54c-.53.71-1.098.269-1.69 0a3.511 3.511 0 0 0-2.405-.38c-1.702.38-2.195 2.107-2.245 3.675-.05 1.568.284 3.356 1.838 3.98a3.19 3.19 0 0 0 2.466-.085c.605-.282 1.468-1.347 2.097-.527l.962 1.225a6.61 6.61 0 0 1-3.214 1.863 6.642 6.642 0 0 1-3.717-.16 6.157 6.157 0 0 1-2.877-2.356 6.094 6.094 0 0 1-.984-3.573 6.153 6.153 0 0 1 .844-3.697 6.215 6.215 0 0 1 2.856-2.514 6.629 6.629 0 0 1 3.686-.306 6.6 6.6 0 0 1 3.27 1.715l-.887 1.14zM74.863 22.185v10.253h.555a.992.992 0 0 0 .863-.428l2.775-3.675a1.342 1.342 0 0 1 1.135-.564h3.071l-3.589 4.533c-.265.36-.6.665-.987.894.364.274.666.62.888 1.017l3.886 6.014h-3.022a1.24 1.24 0 0 1-1.135-.575l-2.837-4.582a.897.897 0 0 0-.9-.465h-.703v5.635h-3.33V22.185h3.33zM88.17 22.185v10.253h.556a.992.992 0 0 0 .863-.428l2.775-3.675a1.341 1.341 0 0 1 1.135-.564h3.071l-3.614 4.557c-.265.361-.6.665-.986.894.363.275.665.621.888 1.017l3.885 6.015h-3.01a1.24 1.24 0 0 1-1.134-.576l-2.825-4.594a.898.898 0 0 0-.9-.465h-.703v5.635h-3.367V22.185h3.367zM102.983 43.598a1.09 1.09 0 0 1-1.097.674h-2.467l2.343-5.072-5.044-11.49h2.948a.968.968 0 0 1 .937.6l2.393 5.99c.172.474.32.947.444 1.421.148-.478.32-.955.505-1.433l2.22-5.966a.969.969 0 0 1 .913-.6h2.689l-6.784 15.876z" fill="#fff"/></svg>