<svg width="144" height="36" fill="none" xmlns="http://www.w3.org/2000/svg"><g clip-path="url(#a)" fill="#fff"><path d="M36.502 18c0-4.055-1.388-7.99-3.94-11.17A18.281 18.281 0 0 0 22.444.482a18.484 18.484 0 0 0-11.928 1.215 18.137 18.137 0 0 0-8.59 8.253A17.778 17.778 0 0 0 .387 21.68a17.957 17.957 0 0 0 6.17 10.14 18.4 18.4 0 0 0 11.22 4.175A18.423 18.423 0 0 0 29.202 32.4H17.79a14.739 14.739 0 0 1-7.957-2.583 14.436 14.436 0 0 1-5.207-6.471 14.215 14.215 0 0 1-.744-8.229A14.34 14.34 0 0 1 7.844 7.84a14.662 14.662 0 0 1 7.366-3.932 14.792 14.792 0 0 1 8.346.708 14.57 14.57 0 0 1 6.578 5.115 14.269 14.269 0 0 1 2.645 7.838V28.8A17.555 17.555 0 0 0 36.502 18z"/><path d="M27.364 26.988v-7.56h-5.67a3.896 3.896 0 0 1-1.716 1.858 3.977 3.977 0 0 1-2.512.43 3.948 3.948 0 0 1-2.25-1.183 3.834 3.834 0 0 1-.437-4.737 3.921 3.921 0 0 1 1.997-1.562 3.981 3.981 0 0 1 2.55-.025 3.925 3.925 0 0 1 2.028 1.523h5.73a9.066 9.066 0 0 0-2.475-4.317 9.26 9.26 0 0 0-4.404-2.394 9.345 9.345 0 0 0-5.022.24 9.227 9.227 0 0 0-4.149 2.802 9.037 9.037 0 0 0-2.041 4.533 8.982 8.982 0 0 0 .673 4.914 9.124 9.124 0 0 0 3.186 3.837 9.306 9.306 0 0 0 4.754 1.617l9.758.024zM49.156 12.924a6.341 6.341 0 0 0-3.485 1.05 6.21 6.21 0 0 0-2.307 2.78 6.114 6.114 0 0 0-.352 3.577 6.165 6.165 0 0 0 1.721 3.168 6.305 6.305 0 0 0 3.215 1.691 6.36 6.36 0 0 0 3.626-.354 6.26 6.26 0 0 0 2.815-2.281 6.132 6.132 0 0 0 1.057-3.439 6.057 6.057 0 0 0-.462-2.382 6.128 6.128 0 0 0-1.363-2.019 6.225 6.225 0 0 0-2.05-1.34 6.295 6.295 0 0 0-2.415-.45zm0 9.432a3.2 3.2 0 0 1-2.313-.938 3.117 3.117 0 0 1-.69-1.06 3.081 3.081 0 0 1-.21-1.242 3.139 3.139 0 0 1 .87-2.374 3.224 3.224 0 0 1 1.07-.74 3.262 3.262 0 0 1 3.628.74 3.14 3.14 0 0 1 .87 2.374 3.116 3.116 0 0 1-.903 2.306 3.168 3.168 0 0 1-1.064.704c-.399.16-.827.239-1.258.23zm11.364-7.08V13.2h-3.066v11.736h3.066V19.38a2.893 2.893 0 0 1 .25-1.32c.185-.415.466-.782.82-1.072a3.01 3.01 0 0 1 2.58-.596V13.02a3.69 3.69 0 0 0-2.198.54 3.612 3.612 0 0 0-1.452 1.716zm14.212-.636a4.7 4.7 0 0 0-1.728-1.312 4.766 4.766 0 0 0-2.142-.404c-.791.03-1.569.216-2.288.544a6.006 6.006 0 0 0-1.9 1.37 5.913 5.913 0 0 0-1.223 1.983 5.854 5.854 0 0 0-.356 2.295c-.036.78.085 1.56.356 2.295.27.734.686 1.409 1.222 1.984a6.008 6.008 0 0 0 1.901 1.37 6.079 6.079 0 0 0 2.288.543 4.765 4.765 0 0 0 2.142-.404 4.7 4.7 0 0 0 1.728-1.312v1.392h3.066V13.2h-3.066v1.44zm-3.298 7.788a3.226 3.226 0 0 1-2.389-.94 3.106 3.106 0 0 1-.909-2.373c0-.858.347-1.682.963-2.29a3.309 3.309 0 0 1 2.323-.949c.871 0 1.707.342 2.323.95.616.607.962 1.43.962 2.29a3.119 3.119 0 0 1-.904 2.36 3.237 3.237 0 0 1-2.369.952zm15.647-9.504a4.088 4.088 0 0 0-1.985.371 4.028 4.028 0 0 0-1.555 1.273V13.2h-3.054v11.736h3.054v-6.288c0-2.04 1.12-2.904 2.616-2.904a2.23 2.23 0 0 1 1.743.658 2.144 2.144 0 0 1 .605 1.742v6.828h3.066v-7.2c0-3.108-1.971-4.848-4.49-4.848zm16.098 1.788a4.504 4.504 0 0 0-1.674-1.357 4.57 4.57 0 0 0-2.123-.43c-.789.005-1.569.166-2.294.472a5.966 5.966 0 0 0-1.933 1.309 5.872 5.872 0 0 0-1.272 1.942 5.81 5.81 0 0 0-.414 2.276 5.797 5.797 0 0 0 .41 2.278c.29.725.722 1.386 1.272 1.944a5.952 5.952 0 0 0 1.935 1.309 6.02 6.02 0 0 0 2.296.47 4.57 4.57 0 0 0 2.123-.432 4.504 4.504 0 0 0 1.674-1.357v1.272c.026.4-.037.802-.187 1.176-.149.374-.38.71-.676.985a2.796 2.796 0 0 1-2.24.719 3.102 3.102 0 0 1-1.822-.335 3.043 3.043 0 0 1-1.293-1.309l-2.616 1.488a6.05 6.05 0 0 0 2.408 2.215c.994.506 2.11.732 3.226.653 3.127 0 6.193-1.74 6.193-5.58V13.2h-2.993v1.512zm-3.322 7.428a3.278 3.278 0 0 1-1.783-.574 3.211 3.211 0 0 1-1.165-1.45 3.163 3.163 0 0 1-.157-1.843c.133-.617.446-1.181.902-1.622a3.264 3.264 0 0 1 1.661-.86 3.29 3.29 0 0 1 1.866.189c.59.243 1.094.651 1.449 1.175a3.18 3.18 0 0 1 .549 1.77 3.119 3.119 0 0 1-.95 2.322 3.183 3.183 0 0 1-1.091.69 3.222 3.222 0 0 1-1.28.203zm14.662-9.216a6.165 6.165 0 0 0-2.42.432 6.09 6.09 0 0 0-2.048 1.34 5.996 5.996 0 0 0-1.343 2.03 5.922 5.922 0 0 0-.419 2.39c-.029.84.121 1.678.441 2.458.319.78.802 1.484 1.416 2.068a6.09 6.09 0 0 0 2.146 1.32 6.166 6.166 0 0 0 2.507.346 6.079 6.079 0 0 0 2.889-.612 5.983 5.983 0 0 0 2.245-1.896l-2.433-1.404a3.307 3.307 0 0 1-1.191.907 3.347 3.347 0 0 1-1.474.293 3.138 3.138 0 0 1-2.105-.479 3.068 3.068 0 0 1-1.278-1.717h9.004c.076-.396.117-.797.122-1.2a5.867 5.867 0 0 0-1.647-4.436 6.03 6.03 0 0 0-2.012-1.372 6.084 6.084 0 0 0-2.4-.468zM111.404 18a2.908 2.908 0 0 1 1.091-1.789 2.986 2.986 0 0 1 2.024-.61 2.897 2.897 0 0 1 1.935.646A2.823 2.823 0 0 1 117.463 18h-6.059zm20.173-3.372a4.698 4.698 0 0 0-1.707-1.294 4.765 4.765 0 0 0-2.113-.41 6.08 6.08 0 0 0-2.289.544 6.006 6.006 0 0 0-1.901 1.37 5.916 5.916 0 0 0-1.222 1.983 5.848 5.848 0 0 0-.356 2.295c-.036.78.085 1.56.356 2.295a5.915 5.915 0 0 0 1.222 1.984 6.008 6.008 0 0 0 1.901 1.37 6.081 6.081 0 0 0 2.289.543 4.762 4.762 0 0 0 2.141-.404 4.703 4.703 0 0 0 1.728-1.312v1.392h3.066V13.2h-3.066l-.049 1.428zm-3.297 7.788a3.223 3.223 0 0 1-2.373-.948 3.148 3.148 0 0 1-.701-1.089 3.1 3.1 0 0 1-.199-1.275c0-.86.346-1.683.962-2.29a3.31 3.31 0 0 1 2.323-.95 3.31 3.31 0 0 1 2.323.95c.616.607.962 1.43.962 2.29a3.147 3.147 0 0 1-.908 2.377 3.238 3.238 0 0 1-2.389.947v-.012zm12.106-7.2V13.2h-3.066v11.736h3.066V19.38a2.898 2.898 0 0 1 1.07-2.392c.354-.29.771-.494 1.219-.598a3.012 3.012 0 0 1 1.362.002V13.02a3.69 3.69 0 0 0-2.199.54 3.614 3.614 0 0 0-1.452 1.716v-.06z"/></g><defs><clipPath id="a"><path fill="#fff" d="M0 0h144v36H0z"/></clipPath></defs></svg>