<svg width="161" height="40" fill="none" xmlns="http://www.w3.org/2000/svg"><g clip-path="url(#a)" fill="#fff"><path d="M57.649 24.437c-1.587 0-2.229-1.127-2.229-3.081V15.95h4.6v-2.06h-4.6v-3.45h-2.229v11.126c0 3.169 1.123 4.93 3.94 4.93 1.392 0 2.533-.493 3.21-1.04l-.695-1.707c-.464.317-1.123.687-1.997.687zm9.611-10.828c-1.569 0-3.067.44-4.19 1.127l.588 1.76c.999-.528 1.926-.915 3.46-.915 2.478 0 2.853 1.602 2.853 3.909-.839-.6-2.14-.793-3.121-.793-2.71 0-4.743 1.409-4.743 3.944 0 2.394 1.569 3.82 3.852 3.82 2.068 0 3.263-.845 4.011-1.795v1.602h2.105v-7.606c0-3.204-1.249-5.053-4.815-5.053zm2.693 9.278c-.642.74-1.587 1.602-3.228 1.602-1.444 0-2.264-.774-2.264-1.954 0-1.426 1.337-2.042 2.674-2.042 1.088 0 2.033.282 2.818.828v1.566zm12.16-9.278c-1.729 0-3.405.74-4.261 1.743v-1.461h-2.229v17.905h2.229v-6.092c.892.581 2.211.845 3.548.845 3.941 0 6.527-2.887 6.527-6.672-.018-3.644-2.247-6.268-5.813-6.268zm-.927 10.88c-1.194 0-2.228-.228-3.352-.968v-6.144c.785-.968 2.14-1.708 3.62-1.708 2.586 0 4.066 1.796 4.066 4.296.017 2.623-1.659 4.524-4.334 4.524zm21.042-10.862-3.674.88c-.856-.58-1.943-.915-3.174-.915-3.156 0-5.135 2.06-5.135 4.542 0 1.813 1.034 3.363 2.817 4.067-.232.282-.339.669-.339 1.038 0 .353.09.74.304 1.022-2.408.493-4.013 1.76-4.013 3.767 0 2.694 2.729 3.944 6.384 3.944 3.656 0 6.384-1.303 6.384-3.944 0-2.693-2.728-3.996-6.384-3.996-.25 0-.5.035-.749.035a1.464 1.464 0 0 1-.25-.828c0-.228.036-.475.143-.686.286.035.553.035.838.035 3.103 0 5.136-1.99 5.136-4.454 0-.775-.196-1.514-.589-2.148l2.372-.581-.071-1.778zm-6.83 12.236c2.675 0 4.297.827 4.297 2.2 0 1.409-1.693 2.148-4.297 2.148-2.585 0-4.297-.774-4.297-2.147 0-1.374 1.622-2.201 4.297-2.201zm-.018-5.035c-1.836 0-3.031-1.127-3.031-2.677 0-1.549 1.195-2.746 3.031-2.746 1.873 0 3.032 1.215 3.032 2.746 0 1.603-1.284 2.677-3.032 2.677zm14.426-7.219c-4.119 0-6.473 2.87-6.473 6.48 0 3.908 2.657 6.478 6.723 6.478 1.676 0 3.495-.528 4.707-1.62l-.695-1.743c-.803.74-2.229 1.303-3.852 1.303-2.461 0-4.19-1.373-4.386-3.715h9.646c.09-.387.143-.88.143-1.479 0-3.45-2.586-5.704-5.813-5.704zm-4.101 5.37c.249-1.901 1.694-3.31 3.994-3.31 2.175 0 3.513 1.268 3.62 3.31h-7.614zm15.014-3.644v-1.462h-2.229v12.395h2.229v-8.785c.481-.916 1.177-1.761 2.621-1.761.749 0 1.088.106 1.694.475l.785-2.06c-.411-.299-.928-.475-1.944-.475-1.605 0-2.514.74-3.156 1.673zm7.471 10.933h2.229V13.873h-2.229v12.395zm1.177-18.363c-.785 0-1.444.528-1.444 1.32 0 .916.677 1.427 1.444 1.427.695 0 1.373-.529 1.373-1.427-.018-.792-.678-1.32-1.373-1.32zm11.359 5.757c-1.641 0-3.228.792-4.102 1.743v-1.514h-2.228v12.394h2.228v-8.943a4.831 4.831 0 0 1 3.549-1.602c2.336 0 3.548 1.214 3.548 3.802v6.743h2.229V19.12c0-3.891-1.961-5.458-5.224-5.458zM161 19.278c0-3.415-2.586-5.669-5.831-5.669-4.119 0-6.473 2.87-6.473 6.48 0 3.908 2.657 6.478 6.723 6.478 1.676 0 3.495-.528 4.707-1.62l-.695-1.743c-.803.74-2.229 1.303-3.852 1.303-2.46 0-4.19-1.373-4.386-3.715h9.647c.107-.405.16-.898.16-1.514zm-9.932-.299c.25-1.901 1.694-3.31 3.994-3.31 2.176 0 3.513 1.268 3.62 3.31h-7.614zM40.424 18.926c0-.035 0-.088-.018-.123a19.793 19.793 0 0 0-1.605-6.726C36.786 23.434 26.73 32.043 14.64 32.043a24.66 24.66 0 0 1-12.893-3.609c.197.423.41.845.642 1.25v.018c.232.387.464.774.714 1.162.017.017.017.035.035.053.5.756 1.052 1.46 1.64 2.147.036.036.054.07.09.106.588.669 1.23 1.285 1.89 1.866.054.035.09.07.143.123.66.564 1.373 1.092 2.104 1.567.053.036.125.07.196.124.339.21.678.422 1.034.616.036.017.072.035.107.07.375.212.767.405 1.16.581l.213.106c.339.158.678.3 1.034.422.072.036.161.053.232.088.41.141.82.282 1.23.405.072.018.143.035.232.07.357.106.714.194 1.07.282.107.018.197.053.303.07.428.089.856.177 1.284.23.054 0 .107.017.179.017.392.053.766.088 1.159.124.125.017.232.017.356.017A17.1 17.1 0 0 0 20.15 40c11.216 0 20.31-8.944 20.31-19.982-.017-.405-.017-.74-.035-1.092zM35.449 6.85a20.537 20.537 0 0 0-4.262-3.645c-3.406 4.12-8.612 6.76-14.443 6.76A18.685 18.685 0 0 1 5.42 6.18C2.532 9.208.57 13.08 0 17.412c3.798 2.412 8.31 3.803 13.16 3.803 9.967 0 18.544-5.898 22.289-14.366zM27.603 1.39A20.621 20.621 0 0 0 20.132 0c-2.996 0-5.849.651-8.399 1.796a24.644 24.644 0 0 0 7.347 1.127 25.29 25.29 0 0 0 8.523-1.532z"/></g><defs><clipPath id="a"><path fill="#fff" d="M0 0h161v40H0z"/></clipPath></defs></svg>